<svg width="166" height="166" viewBox="0 0 166 166" fill="none" xmlns="http://www.w3.org/2000/svg">
<g filter="url(#filter0_d_798_19735)">
<rect x="36" y="32" width="94" height="94" rx="47" fill="white"/>
<path fill-rule="evenodd" clip-rule="evenodd" d="M97.4472 84.4207L96.9269 88.5415L89.7161 87.6311L90.2343 83.5271C88.839 82.8916 87.6021 81.972 86.5242 80.7676L82.6602 82.4334L79.726 75.8951L83.6077 74.232C83.5655 73.8244 83.5484 73.4033 83.5561 72.9679C83.5663 72.7047 83.5817 72.4422 83.603 72.1811C83.6216 72.0339 83.6408 71.8818 83.6608 71.7229C83.7707 70.8529 83.963 70.0267 84.2372 69.2457L80.8885 66.6871L85.3558 61.083L88.7194 63.6616C90.0484 62.7841 91.4622 62.2047 92.962 61.9229L93.4801 57.819L100.691 58.7294L100.173 62.8333C100.947 63.1955 101.675 63.6438 102.357 64.1774C102.559 64.3407 102.761 64.5095 102.961 64.6844C103.265 64.9643 103.562 65.2599 103.85 65.572L107.766 63.9125L110.701 70.4511L106.802 72.1127C106.875 72.9258 106.856 73.7676 106.746 74.6376C106.638 75.4973 106.447 76.3111 106.174 77.0812L109.538 79.6591L105.071 85.2629L101.707 82.6846C100.377 83.5731 98.957 84.152 97.4472 84.4207ZM96.2472 78.4807C96.9775 78.3544 97.6624 78.079 98.3015 77.6544C98.4037 77.5873 98.5002 77.5195 98.591 77.4502C99.5107 76.7507 100.131 75.8755 100.451 74.8247C100.548 74.5162 100.618 74.1971 100.659 73.869C100.678 73.7224 100.69 73.5806 100.695 73.4435C100.708 73.2496 100.709 73.0542 100.699 72.858C100.695 72.8004 100.691 72.7366 100.688 72.6673C100.603 71.6684 100.223 70.742 99.5459 69.8869C99.4752 69.7972 99.3985 69.7075 99.3163 69.6171C98.7927 69.0339 98.1929 68.59 97.5169 68.2868C97.0182 68.0631 96.4746 67.9137 95.8867 67.8395C95.8057 67.8293 95.7194 67.8184 95.6272 67.8068C95.1402 67.7682 94.6632 67.7887 94.1965 67.8676C93.4548 67.9918 92.7576 68.2719 92.1055 68.7067C92.0149 68.7753 91.9242 68.8439 91.8335 68.9131C91.4579 69.1984 91.131 69.5134 90.8534 69.8576C90.4521 70.3463 90.1595 70.901 89.9755 71.5208C89.8782 71.8307 89.8079 72.1545 89.7651 72.4936C89.7222 72.8333 89.7049 73.1582 89.7122 73.4689C89.7725 74.5677 90.1612 75.5702 90.8786 76.4764C90.9492 76.5661 91.0208 76.6489 91.0928 76.7276C91.1029 76.74 91.1131 76.7524 91.1231 76.7655C91.2976 76.9601 91.4747 77.137 91.6531 77.298C92.0357 77.6101 92.4427 77.8626 92.8752 78.055C93.3839 78.2918 93.9381 78.4474 94.5378 78.5231C95.1372 78.5988 95.7071 78.5851 96.2472 78.4807Z" fill="url(#paint0_linear_798_19735)"/>
<path d="M73.827 67.2349L73.8269 67.235C73.9154 67.3802 73.995 67.5298 74.0654 67.6832C74.1179 67.7913 74.1665 67.9039 74.2116 68.0207C74.3145 68.2867 74.3929 68.5584 74.4458 68.8348C74.6356 69.7787 74.5184 70.7112 74.107 71.6179C74.0652 71.7104 74.0191 71.8024 73.9697 71.894C73.6586 72.4769 73.2492 72.9707 72.7422 73.3698C72.3673 73.6756 71.937 73.9194 71.457 74.105C70.9763 74.2909 70.4908 74.4011 70.0013 74.4305C69.5898 74.4614 69.1754 74.4356 68.7589 74.3556L68.7467 74.3533L68.7345 74.3503C68.5362 74.3018 68.3331 74.2411 68.1254 74.1665L68.1075 74.16L68.0901 74.1522L68.0804 74.1481C67.9976 74.119 67.9117 74.0861 67.8227 74.0475C66.9087 73.6538 66.1915 73.0451 65.6886 72.2237L65.6845 72.217L65.6806 72.2102C65.548 71.9774 65.4295 71.7263 65.3253 71.4568C65.2197 71.1838 65.1403 70.9091 65.0867 70.6323C64.9717 70.0792 64.9662 69.527 65.0728 68.9799C65.1436 68.6009 65.2635 68.2273 65.4303 67.8603M73.827 67.2349L71.2601 65.7896M73.827 67.2349L73.8205 67.2248C73.8 67.1929 73.777 67.1556 73.7517 67.113L73.7463 67.104L73.7406 67.0953C73.256 66.3543 72.574 65.8008 71.7148 65.4304M73.827 67.2349L71.5165 65.8894M65.4303 67.8603C65.4304 67.8601 65.4305 67.8599 65.4306 67.8597L65.8858 68.0667L65.4301 67.8609C65.4302 67.8607 65.4303 67.8605 65.4303 67.8603ZM65.4303 67.8603C65.4673 67.7786 65.5043 67.6975 65.5408 67.6176L65.547 67.604L65.554 67.5908C65.871 66.994 66.289 66.4901 66.8083 66.0866M66.8083 66.0866L67.1156 66.4809L66.8089 66.0861C66.8087 66.0863 66.8085 66.0864 66.8083 66.0866ZM66.8083 66.0866C67.1315 65.8347 67.4856 65.6239 67.8692 65.4546L67.8799 65.4499L67.8908 65.4457L67.8912 65.4455L67.8916 65.4454L67.892 65.4452L67.8924 65.4451L67.8928 65.4449L67.8932 65.4448L67.8936 65.4446L67.8939 65.4445L67.8943 65.4443L67.8947 65.4441L67.8951 65.444L67.8955 65.4438L67.8959 65.4437L67.8963 65.4435L67.8967 65.4434L67.8971 65.4432L67.8975 65.4431L67.8979 65.4429L67.8983 65.4428L67.8987 65.4426L67.8991 65.4425L67.8994 65.4423L67.8998 65.4422L67.9002 65.442L67.9006 65.4419L67.901 65.4417L67.9014 65.4416L67.9018 65.4414L67.9022 65.4413L67.9026 65.4411L67.903 65.441L67.9034 65.4408L67.9038 65.4407L67.9041 65.4405L67.9045 65.4404L67.9049 65.4402L67.9053 65.4401L67.9057 65.4399L67.9061 65.4398L67.9065 65.4396L67.9069 65.4394L67.9073 65.4393L67.9077 65.4391L67.9081 65.439L67.9084 65.4388L67.9088 65.4387L67.9092 65.4385L67.9096 65.4384L67.91 65.4382L67.9104 65.4381L67.9108 65.4379L67.9112 65.4378L67.9116 65.4376L67.912 65.4375L67.9123 65.4373L67.9127 65.4372L67.9131 65.437L67.9135 65.4369L67.9139 65.4367L67.9143 65.4366L67.9147 65.4364L67.9151 65.4363L67.9155 65.4361L67.9158 65.436L67.9162 65.4358L67.9166 65.4357L67.917 65.4355L67.9174 65.4354L67.9178 65.4352L67.9182 65.4351L67.9186 65.4349L67.9189 65.4348L67.9193 65.4346L67.9197 65.4345L67.9201 65.4343L67.9205 65.4342L67.9209 65.434L67.9213 65.4339L67.9217 65.4337L67.922 65.4336L67.9224 65.4334L67.9228 65.4333L67.9232 65.4331L67.9236 65.433L67.924 65.4328L67.9244 65.4327L67.9247 65.4325L67.9251 65.4324L67.9255 65.4322L67.9259 65.4321L67.9263 65.4319L67.9267 65.4318L67.9271 65.4316L67.9274 65.4315L67.9278 65.4314L67.9282 65.4312L67.9286 65.4311L67.929 65.4309L67.9294 65.4308L67.9297 65.4306L67.9301 65.4305L67.9305 65.4303L67.9309 65.4302L67.9313 65.43L67.9317 65.4299L67.9321 65.4297L67.9324 65.4296L67.9328 65.4294L67.9332 65.4293L67.9336 65.4291L67.934 65.429L67.9344 65.4288L67.9347 65.4287L67.9351 65.4285L67.9355 65.4284L67.9359 65.4282L67.9363 65.4281L67.9367 65.4279L67.937 65.4278L67.9374 65.4276L67.9378 65.4275L67.9382 65.4273L67.9386 65.4272L67.939 65.427L67.9393 65.4269L67.9397 65.4268L67.9401 65.4266L67.9405 65.4265L67.9409 65.4263L67.9412 65.4262L67.9416 65.426L67.942 65.4259L67.9424 65.4257L67.9428 65.4256L67.9432 65.4254L67.9435 65.4253L67.9439 65.4251L67.9443 65.425L67.9447 65.4248L67.9451 65.4247L67.9454 65.4245L67.9458 65.4244L67.9462 65.4242L67.9466 65.4241L67.947 65.424L67.9473 65.4238L67.9477 65.4237L67.9481 65.4235L67.9485 65.4234L67.9489 65.4232L67.9492 65.4231L67.9496 65.4229L67.95 65.4228L67.9504 65.4226L67.9508 65.4225L67.9511 65.4223L67.9515 65.4222L67.9519 65.422L67.9523 65.4219L67.9527 65.4217L67.953 65.4216L67.9534 65.4215L67.9538 65.4213L67.9542 65.4212L67.9545 65.421L67.9549 65.4209L67.9553 65.4207L67.9557 65.4206L67.9561 65.4204L67.9564 65.4203L67.9568 65.4201L67.9572 65.42L67.9576 65.4198L67.958 65.4197L67.9583 65.4196L67.9587 65.4194L67.9591 65.4193L67.9595 65.4191L67.9598 65.419L67.9602 65.4188L67.9606 65.4187L67.961 65.4185L67.9613 65.4184L67.9617 65.4182L67.9621 65.4181L67.9625 65.418L67.9629 65.4178L67.9632 65.4177L67.9636 65.4175L67.964 65.4174L67.9644 65.4172L67.9647 65.4171L67.9651 65.4169L67.9655 65.4168L67.9659 65.4166L67.9662 65.4165L67.9666 65.4164L67.967 65.4162L67.9674 65.4161L67.9677 65.4159L67.9681 65.4158L67.9685 65.4156L67.9689 65.4155L67.9692 65.4153L67.9696 65.4152L67.97 65.415L67.9704 65.4149L67.9707 65.4148L67.9711 65.4146L67.9715 65.4145L67.9719 65.4143L67.9722 65.4142L67.9726 65.414L67.973 65.4139L67.9734 65.4137L67.9737 65.4136L67.9741 65.4135L67.9745 65.4133L67.9748 65.4132L67.9752 65.413L67.9756 65.4129L67.976 65.4127L67.9763 65.4126L67.9767 65.4124L67.9771 65.4123L67.9775 65.4122L67.9778 65.412L67.9782 65.4119L67.9786 65.4117L67.9789 65.4116L67.9793 65.4114L67.9797 65.4113L67.9801 65.4112L67.9804 65.411L67.9808 65.4109L67.9812 65.4107L67.9815 65.4106L67.9819 65.4104L67.9823 65.4103L67.9827 65.4101L67.983 65.41L67.9834 65.4099L67.9838 65.4097L67.9841 65.4096L67.9845 65.4094L67.9849 65.4093L67.9853 65.4091L67.9856 65.409L67.986 65.4089L67.9864 65.4087L67.9867 65.4086L67.9871 65.4084L67.9875 65.4083L67.9879 65.4081L67.9882 65.408L67.9886 65.4079L67.989 65.4077L67.9893 65.4076L67.9897 65.4074L67.9901 65.4073L67.9904 65.4071L67.9908 65.407L67.9912 65.4069L67.9915 65.4067L67.9919 65.4066L67.9923 65.4064L67.9927 65.4063L67.993 65.4061L67.9934 65.406L67.9938 65.4059L67.9941 65.4057L67.9945 65.4056L67.9949 65.4054L67.9952 65.4053L67.9956 65.4051L67.996 65.405L67.9963 65.4049L67.9967 65.4047L67.9971 65.4046L67.9974 65.4044L67.9978 65.4043L67.9982 65.4041L67.9985 65.404L67.9989 65.4039L67.9993 65.4037L67.9996 65.4036L68 65.4034L68.0004 65.4033L68.0007 65.4032L68.0011 65.403L68.0015 65.4029L68.0018 65.4027L68.0022 65.4026L68.0026 65.4024L68.0029 65.4023L68.0033 65.4022L68.0037 65.402L68.004 65.4019L68.0044 65.4017L68.0048 65.4016L68.0051 65.4015L68.0055 65.4013L68.0059 65.4012L68.0062 65.401L68.0066 65.4009L68.007 65.4007L68.0073 65.4006L68.0077 65.4005L68.0081 65.4003L68.0084 65.4002L68.0088 65.4L68.0092 65.3999L68.0095 65.3998L68.0099 65.3996L68.0102 65.3995L68.0106 65.3993L68.011 65.3992L68.0113 65.3991L68.0117 65.3989L68.0121 65.3988L68.0124 65.3986L68.0128 65.3985L68.0132 65.3984L68.0135 65.3982L68.0139 65.3981L68.0143 65.3979L68.0146 65.3978L68.015 65.3977L68.0153 65.3975L68.0157 65.3974L68.0161 65.3972L68.0164 65.3971L68.0168 65.3969L68.0172 65.3968L68.0175 65.3967L68.0179 65.3965L68.0182 65.3964L68.0186 65.3962L68.019 65.3961L68.0193 65.396L68.0197 65.3958L68.0201 65.3957L68.0204 65.3955L68.0208 65.3954L68.0211 65.3953L68.0215 65.3951L68.0219 65.395L68.0222 65.3948L68.0226 65.3947L68.0229 65.3946L68.0233 65.3944L68.0237 65.3943L68.024 65.3942L68.0244 65.394L68.0248 65.3939L68.0251 65.3937L68.0255 65.3936L68.0258 65.3935L68.0262 65.3933L68.0266 65.3932L68.0269 65.393L68.0273 65.3929L68.0276 65.3928L68.028 65.3926L68.0284 65.3925L68.0287 65.3923L68.0291 65.3922L68.0294 65.3921L68.0298 65.3919L68.0302 65.3918L68.0305 65.3916L68.0309 65.3915L68.0312 65.3914L68.0316 65.3912L68.0319 65.3911L68.0323 65.391L68.0327 65.3908L68.033 65.3907L68.0334 65.3905L68.0337 65.3904L68.0341 65.3903L68.0345 65.3901L68.0348 65.39L68.0352 65.3898L68.0355 65.3897L68.0359 65.3896L68.0362 65.3894L68.0366 65.3893L68.037 65.3892L68.0373 65.389L68.0377 65.3889L68.038 65.3887L68.0384 65.3886L68.0387 65.3885L68.0391 65.3883L68.0395 65.3882L68.0398 65.388L68.0402 65.3879L68.0405 65.3878L68.0409 65.3876L68.0412 65.3875L68.0416 65.3874L68.042 65.3872L68.0423 65.3871L68.0427 65.3869L68.043 65.3868L68.0434 65.3867L68.0437 65.3865L68.0441 65.3864L68.0445 65.3863L68.0448 65.3861L68.0452 65.386L68.0455 65.3858L68.0459 65.3857L68.0462 65.3856L68.0466 65.3854L68.0469 65.3853L68.0473 65.3852L68.0476 65.385L68.048 65.3849L68.0484 65.3847L68.0487 65.3846L68.0491 65.3845L68.0494 65.3843L68.0498 65.3842L68.0501 65.3841L68.0505 65.3839L68.0508 65.3838L68.0512 65.3836L68.0515 65.3835L68.0519 65.3834L68.0523 65.3832L68.0526 65.3831L68.053 65.383L68.0533 65.3828L68.0537 65.3827L68.054 65.3826L68.0544 65.3824L68.0547 65.3823L68.0551 65.3821L68.0554 65.382L68.0558 65.3819L68.0561 65.3817L68.0565 65.3816L68.0568 65.3815L68.0572 65.3813L68.0576 65.3812L68.0579 65.3811L68.0583 65.3809L68.0586 65.3808L68.059 65.3806L68.0593 65.3805L68.0597 65.3804L68.06 65.3802L68.0604 65.3801L68.0607 65.38L68.0611 65.3798L68.0614 65.3797L68.0618 65.3796L68.0621 65.3794L68.0625 65.3793L68.0628 65.3791L68.0632 65.379L68.0635 65.3789L68.0639 65.3787L68.0642 65.3786L68.0646 65.3785L68.0649 65.3783L68.0653 65.3782L68.0656 65.3781L68.066 65.3779L68.0663 65.3778L68.0667 65.3777L68.067 65.3775L68.0674 65.3774L68.0677 65.3773L68.0681 65.3771L68.0684 65.377L68.0688 65.3768L68.0691 65.3767L68.0695 65.3766L68.0698 65.3764L68.0702 65.3763L68.0705 65.3762L68.0709 65.376L68.0712 65.3759L68.0716 65.3758L68.0719 65.3756L68.0723 65.3755L68.0726 65.3754L68.073 65.3752L68.0733 65.3751L68.0737 65.375L68.074 65.3748L68.0744 65.3747L68.0747 65.3746L68.0751 65.3744L68.0754 65.3743L68.0758 65.3741L68.0761 65.374L68.0765 65.3739L68.0768 65.3737L68.0771 65.3736L68.0775 65.3735L68.0778 65.3733L68.0782 65.3732L68.0785 65.3731L68.0789 65.3729L68.0792 65.3728L68.0796 65.3727L68.0799 65.3725L68.0803 65.3724C68.5519 65.19 69.0269 65.0797 69.5034 65.0449M69.5034 65.0449C69.5034 65.0449 69.5033 65.0449 69.5033 65.0449L69.5397 65.5425L69.5034 65.0449ZM69.5034 65.0449C70.1506 64.9976 70.7935 65.0911 71.4274 65.3185M71.4274 65.3185C71.4269 65.3183 71.4264 65.3181 71.4259 65.3179L71.2601 65.7896M71.4274 65.3185C71.4279 65.3186 71.4285 65.3188 71.429 65.319L71.2601 65.7896M71.4274 65.3185C71.5256 65.353 71.6216 65.3901 71.7148 65.4304M71.2601 65.7896C71.3497 65.8211 71.4351 65.8542 71.5165 65.8894M71.7148 65.4304C71.7146 65.4304 71.7145 65.4303 71.7143 65.4302L71.5165 65.8894M71.7148 65.4304C71.7149 65.4305 71.7151 65.4305 71.7152 65.4306L71.5165 65.8894M75.1285 76.2059L74.8402 76.4346L74.9729 76.7779L75.9559 79.32L71.6241 80.995L70.6458 78.4651L70.5131 78.1219L70.1459 78.1466C69.0305 78.2216 67.9151 78.0602 66.7959 77.6565L66.4574 77.5344L66.2341 77.8166L64.5126 79.9931L60.8912 77.215L62.6151 75.0455L62.8441 74.7573L62.6369 74.453C62.4708 74.2091 62.3149 73.9465 62.1691 73.6646C62.0844 73.4917 62.0034 73.318 61.9268 73.1436L61.9267 73.1433L61.9264 73.1427L61.9262 73.142L61.9259 73.1414L61.9257 73.1408L61.9254 73.1401L61.9252 73.1395L61.9249 73.1389L61.9247 73.1382L61.9245 73.1376L61.9242 73.137L61.924 73.1363L61.9237 73.1357L61.9235 73.1351L61.9232 73.1344L61.923 73.1338L61.9227 73.1332L61.9225 73.1326L61.9223 73.1319L61.922 73.1313L61.9218 73.1307L61.9215 73.13L61.9213 73.1294L61.921 73.1288L61.9208 73.1281L61.9205 73.1275L61.9203 73.1269L61.9201 73.1262L61.9198 73.1256L61.9196 73.125L61.9193 73.1243L61.9191 73.1237L61.9188 73.123L61.9186 73.1224L61.9183 73.1218L61.9181 73.1211L61.9178 73.1205L61.9176 73.1199L61.9174 73.1192L61.9171 73.1186L61.9169 73.118L61.9166 73.1173L61.9164 73.1167L61.9161 73.1161L61.9159 73.1154L61.9156 73.1148L61.9154 73.1142L61.9151 73.1135L61.9149 73.1129L61.9147 73.1123L61.9144 73.1116L61.9142 73.111L61.9139 73.1104L61.9137 73.1097L61.9134 73.1091L61.9132 73.1084L61.9129 73.1078L61.9127 73.1072L61.9124 73.1065L61.9122 73.1059L61.9119 73.1053L61.9117 73.1046L61.9115 73.104L61.9112 73.1034L61.911 73.1027L61.9107 73.1021L61.9105 73.1014L61.9102 73.1008L61.91 73.1002L61.9097 73.0995L61.9095 73.0989L61.9092 73.0983L61.909 73.0976L61.9087 73.097L61.9085 73.0963L61.9083 73.0957L61.908 73.0951L61.9078 73.0944L61.9075 73.0938L61.9073 73.0932L61.907 73.0925L61.9068 73.0919L61.9065 73.0912L61.9063 73.0906L61.906 73.09L61.9058 73.0893L61.9055 73.0887L61.9053 73.088L61.905 73.0874L61.9048 73.0868L61.9046 73.0861L61.9043 73.0855L61.9041 73.0849L61.9038 73.0842L61.9036 73.0836L61.9033 73.0829L61.9031 73.0823L61.9028 73.0817L61.9026 73.081L61.9023 73.0804L61.9021 73.0797L61.9018 73.0791L61.9016 73.0785L61.9013 73.0778L61.9011 73.0772L61.9008 73.0765L61.9006 73.0759L61.9003 73.0753L61.9001 73.0746L61.8999 73.074L61.8996 73.0733L61.8994 73.0727L61.8991 73.0721L61.8989 73.0714L61.8986 73.0708L61.8984 73.0701L61.8981 73.0695L61.8979 73.0688L61.8976 73.0682L61.8974 73.0676L61.8971 73.0669L61.8969 73.0663L61.8966 73.0656L61.8964 73.065L61.8961 73.0644L61.8959 73.0637L61.8956 73.0631L61.8954 73.0624L61.8951 73.0618L61.8949 73.0611L61.8946 73.0605L61.8944 73.0599L61.8941 73.0592L61.8939 73.0586L61.8936 73.0579L61.8934 73.0573L61.8932 73.0566L61.8929 73.056L61.8927 73.0554L61.8924 73.0547L61.8922 73.0541L61.8919 73.0534L61.8917 73.0528L61.8914 73.0521L61.8912 73.0515L61.8909 73.0509L61.8907 73.0502L61.8904 73.0496L61.8902 73.0489L61.8899 73.0483L61.8897 73.0476L61.8894 73.047L61.8892 73.0463L61.8889 73.0457L61.8887 73.0451L61.8884 73.0444L61.8882 73.0438L61.8879 73.0431L61.8877 73.0425L61.8874 73.0418L61.8872 73.0412L61.8869 73.0405L61.8867 73.0399L61.8864 73.0392L61.8862 73.0386L61.8859 73.038L61.8857 73.0373L61.8854 73.0367L61.8852 73.036L61.8849 73.0354L61.8847 73.0347L61.8844 73.0341L61.8842 73.0334L61.8839 73.0328L61.8837 73.0321L61.8834 73.0315L61.8832 73.0308L61.8829 73.0302L61.8827 73.0296L61.8824 73.0289L61.8822 73.0283L61.8819 73.0276L61.8817 73.027L61.8814 73.0263L61.8812 73.0257L61.8809 73.025L61.8807 73.0244L61.8804 73.0237L61.8802 73.0231L61.8799 73.0224L61.8797 73.0218L61.8794 73.0211L61.8792 73.0205L61.8789 73.0198L61.8787 73.0192L61.8784 73.0185L61.8782 73.0179L61.8779 73.0172L61.8777 73.0166L61.8774 73.0159L61.8772 73.0153L61.8769 73.0147L61.8767 73.014L61.8764 73.0134L61.8762 73.0127L61.8759 73.0121L61.8757 73.0114L61.8754 73.0108L61.8752 73.0101L61.8749 73.0095L61.8747 73.0088L61.8744 73.0082L61.8741 73.0075L61.8739 73.0069L61.8736 73.0062L61.8734 73.0056L61.8731 73.0049L61.8729 73.0043L61.8726 73.0036L61.8724 73.003L61.8721 73.0023L61.8719 73.0016L61.8716 73.001L61.8714 73.0003L61.8711 72.9997L61.8709 72.999L61.8706 72.9984L61.8704 72.9977L61.8701 72.9971L61.8699 72.9964L61.8696 72.9958L61.8694 72.9951L61.8691 72.9945L61.8689 72.9938L61.8686 72.9932L61.8684 72.9925L61.8681 72.9919L61.8679 72.9912L61.8676 72.9906L61.8673 72.9899L61.8671 72.9893L61.8668 72.9886L61.8666 72.988L61.8663 72.9873L61.8661 72.9867L61.8658 72.986L61.8656 72.9853L61.8653 72.9847L61.8651 72.984L61.8648 72.9834L61.8646 72.9827L61.8643 72.9821L61.8641 72.9814L61.8638 72.9808L61.8636 72.9801L61.8633 72.9795L61.8631 72.9788L61.8628 72.9782L61.8625 72.9775L61.8623 72.9768L61.862 72.9762L61.8618 72.9755L61.8615 72.9749L61.8613 72.9742L61.861 72.9736L61.8608 72.9729L61.8605 72.9723L61.8603 72.9716L61.86 72.9709L61.8598 72.9703L61.8595 72.9696L61.8593 72.969L61.859 72.9683L61.8587 72.9677L61.8585 72.967L61.8582 72.9664L61.858 72.9657L61.8577 72.965L61.8575 72.9644L61.8572 72.9637L61.857 72.9631L61.8567 72.9624L61.8565 72.9618L61.8562 72.9611L61.856 72.9604L61.8557 72.9598L61.8554 72.9591L61.8552 72.9585L61.8549 72.9578L61.8547 72.9572L61.8544 72.9565L61.8542 72.9558L61.8539 72.9552L61.8537 72.9545L61.8534 72.9539L61.8532 72.9532L61.8529 72.9525L61.8526 72.9519L61.8524 72.9512L61.8521 72.9506L61.8519 72.9499L61.8516 72.9493L61.8514 72.9486L61.8511 72.9479L61.8509 72.9473L61.8506 72.9466L61.8504 72.946L61.8501 72.9453L61.8498 72.9446L61.8496 72.944L61.8493 72.9433L61.8491 72.9427L61.8488 72.942L61.8486 72.9413L61.8483 72.9407L61.8481 72.94L61.8478 72.9394L61.8475 72.9387L61.8473 72.938L61.847 72.9374L61.8468 72.9367L61.8465 72.9361L61.8463 72.9354L61.846 72.9347L61.8458 72.9341L61.8455 72.9334L61.8452 72.9328L61.845 72.9321L61.8447 72.9314L61.8445 72.9308L61.8442 72.9301L61.844 72.9294L61.8437 72.9288L61.8435 72.9281L61.8432 72.9275L61.8429 72.9268L61.8427 72.9261L61.8424 72.9255L61.8422 72.9248L61.8419 72.9241L61.8417 72.9235L61.8414 72.9228L61.8411 72.9222L61.8409 72.9215L61.8406 72.9208L61.8404 72.9202L61.8401 72.9195L61.8399 72.9188L61.8396 72.9182L61.8393 72.9175L61.8391 72.9168L61.8388 72.9162L61.8386 72.9155L61.8383 72.9149L61.8381 72.9142L61.8378 72.9135L61.8376 72.9129L61.8373 72.9122L61.837 72.9115L61.8368 72.9109L61.8365 72.9102L61.8363 72.9095L61.836 72.9089L61.8358 72.9082L61.8355 72.9075L61.8352 72.9069L61.835 72.9062L61.8347 72.9055L61.8345 72.9049L61.8342 72.9042L61.834 72.9035L61.8337 72.9029L61.8334 72.9022L61.8332 72.9015L61.8329 72.9009L61.8327 72.9002L61.8324 72.8995L61.8321 72.8989L61.8319 72.8982L61.8316 72.8975L61.8314 72.8969L61.8311 72.8962L61.8309 72.8955L61.8306 72.8949L61.8303 72.8942L61.8301 72.8935L61.8298 72.8929L61.8296 72.8922L61.8293 72.8915L61.829 72.8909L61.8288 72.8902L61.8285 72.8895L61.8283 72.8889L61.828 72.8882L61.8278 72.8875L61.8275 72.8869L61.8272 72.8862L61.827 72.8855L61.8267 72.8849L61.8265 72.8842L61.8262 72.8835L61.8259 72.8828L61.8257 72.8822L61.8254 72.8815L61.8252 72.8808L61.8249 72.8802L61.8247 72.8795L61.8244 72.8788L61.8241 72.8782L61.8239 72.8775L61.8236 72.8768L61.8234 72.8761L61.8231 72.8755L61.8228 72.8748L61.8226 72.8741L61.8223 72.8735L61.8221 72.8728L61.8218 72.8721L61.8215 72.8715L61.8213 72.8708L61.821 72.8701L61.8208 72.8694L61.8205 72.8688L61.8202 72.8681L61.82 72.8674L61.8197 72.8667L61.8195 72.8661L61.8192 72.8654L61.8189 72.8647L61.8187 72.8641L61.8184 72.8634L61.8182 72.8627L61.8179 72.862L61.8176 72.8614L61.8174 72.8607L61.8171 72.86L61.8169 72.8594L61.8166 72.8587L61.8163 72.858L61.8161 72.8573L61.8158 72.8567L61.8156 72.856L61.8153 72.8553L61.815 72.8546L61.8148 72.854L61.8145 72.8533L61.8143 72.8526L61.814 72.8519L61.8137 72.8513L61.8135 72.8506L61.8132 72.8499L61.813 72.8492L61.8127 72.8486L61.8124 72.8479L61.8122 72.8472L61.8119 72.8465L61.8116 72.8459L61.8114 72.8452L61.8111 72.8445L61.8109 72.8438L61.8106 72.8432L61.8103 72.8425L61.8101 72.8418L61.8098 72.8411L61.8096 72.8405L61.8093 72.8398L61.809 72.8391L61.8088 72.8384L61.8085 72.8378L61.8082 72.8371L61.808 72.8364L61.8077 72.8357L61.8075 72.835L61.8072 72.8344L61.8069 72.8337L61.8067 72.833L61.8064 72.8323L61.8062 72.8317L61.8059 72.831L61.8056 72.8303L61.8054 72.8296L61.8051 72.8289L61.8048 72.8283L61.8046 72.8276L61.8043 72.8269L61.8041 72.8262L61.8038 72.8256L61.8035 72.8249L61.8033 72.8242L61.803 72.8235L61.8027 72.8228L61.8025 72.8222L61.8022 72.8215L61.802 72.8208L61.8017 72.8201L61.8014 72.8194C61.5679 72.2154 61.4044 71.614 61.3098 71.0159L61.2531 70.6573L60.8946 70.6003L58.1665 70.1659L58.9767 65.6737L61.742 66.1185L62.0935 66.1751L62.2619 65.8614C62.8169 64.8277 63.5277 63.963 64.395 63.2613L64.6783 63.0321L64.5468 62.6922L63.5686 60.1623L67.9004 58.4873L68.8786 61.0172L69.0099 61.3568L69.3734 61.3361C69.9964 61.3006 70.6204 61.3361 71.2453 61.4426C71.4345 61.4782 71.6248 61.5173 71.8158 61.5607C72.1118 61.6361 72.4087 61.7246 72.7065 61.8264L73.0389 61.9401L73.2585 61.6659L75.0175 59.4702L78.6406 62.2498L76.9058 64.4245L76.679 64.7087L76.8795 65.012C77.2079 65.5087 77.4894 66.0587 77.7231 66.6629C77.9536 67.2592 78.1137 67.851 78.2052 68.4404L78.261 68.7997L78.6199 68.8574L81.3662 69.2988L80.5558 73.7915L77.7906 73.3469L77.4371 73.2901L77.2694 73.6064C76.7184 74.6459 76.005 75.5105 75.1285 76.2059Z" stroke="black"/>
<path d="M82.9866 91.256L82.9865 91.2561C83.057 91.3885 83.1195 91.5243 83.1737 91.6629C83.2144 91.7608 83.2514 91.8624 83.2852 91.9672C83.3621 92.2065 83.4174 92.4497 83.4499 92.6959C83.569 93.5379 83.4179 94.3541 83.0098 95.1308C82.9681 95.2104 82.9229 95.289 82.8749 95.3669C82.5716 95.8639 82.1859 96.2781 81.7189 96.604C81.3726 96.8546 80.9812 97.0472 80.55 97.1859C80.1183 97.3248 79.6854 97.3973 79.2524 97.3982C78.8882 97.4045 78.5247 97.3606 78.1626 97.2691L78.1504 97.266L78.1385 97.2624C77.9668 97.2098 77.7916 97.1462 77.6132 97.0701L77.5957 97.0627L77.5788 97.0539L77.5739 97.0515C77.5029 97.0218 77.4292 96.9885 77.353 96.9502C76.569 96.5573 75.9676 95.9843 75.5661 95.2346L75.5624 95.2277L75.5589 95.2206C75.454 95.009 75.3628 94.7824 75.285 94.5407C75.2061 94.2953 75.1501 94.0497 75.117 93.8032C75.0438 93.3098 75.0671 92.8222 75.1891 92.3448C75.2708 92.0145 75.3954 91.6918 75.5606 91.3778C75.5968 91.3087 75.633 91.2402 75.6686 91.1727L75.6756 91.1595L75.6834 91.1467C75.9927 90.6376 76.3868 90.2147 76.8654 89.8853C77.1626 89.6803 77.4847 89.5129 77.8304 89.3836L77.8413 89.3796L77.8525 89.376L77.8528 89.3759L77.8532 89.3758L77.8535 89.3756L77.8539 89.3755L77.8542 89.3754L77.8545 89.3753L77.8549 89.3752L77.8552 89.3751L77.8556 89.375L77.8559 89.3749L77.8563 89.3747L77.8566 89.3746L77.857 89.3745L77.8573 89.3744L77.8577 89.3743L77.858 89.3742L77.8584 89.3741L77.8587 89.374L77.8591 89.3738L77.8594 89.3737L77.8598 89.3736L77.8601 89.3735L77.8605 89.3734L77.8608 89.3733L77.8612 89.3732L77.8615 89.3731L77.8619 89.373L77.8622 89.3728L77.8626 89.3727L77.8629 89.3726L77.8632 89.3725L77.8636 89.3724L77.8639 89.3723L77.8643 89.3722L77.8646 89.3721L77.865 89.3719L77.8653 89.3718L77.8657 89.3717L77.866 89.3716L77.8664 89.3715L77.8667 89.3714L77.8671 89.3713L77.8674 89.3712L77.8677 89.3711L77.8681 89.3709L77.8684 89.3708L77.8688 89.3707L77.8691 89.3706L77.8695 89.3705L77.8698 89.3704L77.8702 89.3703L77.8705 89.3702L77.8709 89.3701L77.8712 89.3699L77.8715 89.3698L77.8719 89.3697L77.8722 89.3696L77.8726 89.3695L77.8729 89.3694L77.8733 89.3693L77.8736 89.3692L77.874 89.3691L77.8743 89.369L77.8746 89.3688L77.875 89.3687L77.8753 89.3686L77.8757 89.3685L77.876 89.3684L77.8764 89.3683L77.8767 89.3682L77.8771 89.3681L77.8774 89.368L77.8777 89.3678L77.8781 89.3677L77.8784 89.3676L77.8788 89.3675L77.8791 89.3674L77.8795 89.3673L77.8798 89.3672L77.8801 89.3671L77.8805 89.367L77.8808 89.3669L77.8812 89.3667L77.8815 89.3666L77.8819 89.3665L77.8822 89.3664L77.8825 89.3663L77.8829 89.3662L77.8832 89.3661L77.8836 89.366L77.8839 89.3659L77.8842 89.3658L77.8846 89.3656L77.8849 89.3655L77.8853 89.3654L77.8856 89.3653L77.886 89.3652L77.8863 89.3651L77.8866 89.365L77.887 89.3649L77.8873 89.3648L77.8877 89.3647L77.888 89.3645L77.8883 89.3644L77.8887 89.3643L77.889 89.3642L77.8894 89.3641L77.8897 89.364L77.89 89.3639L77.8904 89.3638L77.8907 89.3637L77.8911 89.3636L77.8914 89.3635L77.8917 89.3633L77.8921 89.3632L77.8924 89.3631L77.8928 89.363L77.8931 89.3629L77.8934 89.3628L77.8938 89.3627L77.8941 89.3626L77.8945 89.3625L77.8948 89.3624L77.8951 89.3623L77.8955 89.3621L77.8958 89.362L77.8961 89.3619L77.8965 89.3618L77.8968 89.3617L77.8972 89.3616L77.8975 89.3615L77.8978 89.3614L77.8982 89.3613L77.8985 89.3612L77.8989 89.3611L77.8992 89.3609L77.8995 89.3608L77.8999 89.3607L77.9002 89.3606L77.9005 89.3605L77.9009 89.3604L77.9012 89.3603L77.9016 89.3602L77.9019 89.3601L77.9022 89.36L77.9026 89.3599L77.9029 89.3598L77.9032 89.3596L77.9036 89.3595L77.9039 89.3594L77.9042 89.3593L77.9046 89.3592L77.9049 89.3591L77.9053 89.359L77.9056 89.3589L77.9059 89.3588L77.9063 89.3587L77.9066 89.3586L77.9069 89.3585L77.9073 89.3583L77.9076 89.3582L77.9079 89.3581L77.9083 89.358L77.9086 89.3579L77.909 89.3578L77.9093 89.3577L77.9096 89.3576L77.91 89.3575L77.9103 89.3574L77.9106 89.3573L77.911 89.3572L77.9113 89.3571L77.9116 89.3569L77.912 89.3568L77.9123 89.3567L77.9126 89.3566L77.913 89.3565L77.9133 89.3564L77.9136 89.3563L77.914 89.3562L77.9143 89.3561L77.9146 89.356L77.915 89.3559L77.9153 89.3558L77.9156 89.3557L77.916 89.3555L77.9163 89.3554L77.9166 89.3553L77.917 89.3552L77.9173 89.3551L77.9176 89.355L77.918 89.3549L77.9183 89.3548L77.9186 89.3547L77.919 89.3546L77.9193 89.3545L77.9196 89.3544L77.92 89.3543L77.9203 89.3542L77.9206 89.354L77.921 89.3539L77.9213 89.3538L77.9216 89.3537L77.922 89.3536L77.9223 89.3535L77.9226 89.3534L77.923 89.3533L77.9233 89.3532L77.9236 89.3531L77.924 89.353L77.9243 89.3529L77.9246 89.3528L77.9249 89.3527L77.9253 89.3526L77.9256 89.3524L77.9259 89.3523L77.9263 89.3522L77.9266 89.3521L77.9269 89.352L77.9273 89.3519L77.9276 89.3518L77.9279 89.3517L77.9283 89.3516L77.9286 89.3515L77.9289 89.3514L77.9292 89.3513L77.9296 89.3512L77.9299 89.3511L77.9302 89.351L77.9306 89.3509L77.9309 89.3507L77.9312 89.3506L77.9316 89.3505L77.9319 89.3504L77.9322 89.3503L77.9325 89.3502L77.9329 89.3501L77.9332 89.35L77.9335 89.3499L77.9339 89.3498L77.9342 89.3497L77.9345 89.3496L77.9349 89.3495L77.9352 89.3494L77.9355 89.3493L77.9358 89.3492L77.9362 89.3491L77.9365 89.3489L77.9368 89.3488L77.9372 89.3487L77.9375 89.3486L77.9378 89.3485L77.9381 89.3484L77.9385 89.3483L77.9388 89.3482L77.9391 89.3481L77.9394 89.348L77.9398 89.3479L77.9401 89.3478L77.9404 89.3477L77.9408 89.3476L77.9411 89.3475L77.9414 89.3474L77.9417 89.3473L77.9421 89.3472L77.9424 89.347L77.9427 89.3469L77.943 89.3468L77.9434 89.3467L77.9437 89.3466L77.944 89.3465L77.9444 89.3464L77.9447 89.3463L77.945 89.3462L77.9453 89.3461L77.9457 89.346L77.946 89.3459L77.9463 89.3458L77.9466 89.3457L77.947 89.3456L77.9473 89.3455L77.9476 89.3454L77.9479 89.3453L77.9483 89.3452L77.9486 89.3451L77.9489 89.345L77.9492 89.3448L77.9496 89.3447L77.9499 89.3446L77.9502 89.3445L77.9505 89.3444L77.9509 89.3443L77.9512 89.3442L77.9515 89.3441L77.9518 89.344L77.9522 89.3439L77.9525 89.3438L77.9528 89.3437L77.9531 89.3436L77.9535 89.3435L77.9538 89.3434L77.9541 89.3433L77.9544 89.3432L77.9548 89.3431L77.9551 89.343L77.9554 89.3429L77.9557 89.3428L77.956 89.3427L77.9564 89.3426L77.9567 89.3424L77.957 89.3423L77.9573 89.3422L77.9577 89.3421L77.958 89.342L77.9583 89.3419L77.9586 89.3418L77.959 89.3417L77.9593 89.3416L77.9596 89.3415L77.9599 89.3414L77.9602 89.3413L77.9606 89.3412L77.9609 89.3411L77.9612 89.341L77.9615 89.3409L77.9619 89.3408L77.9622 89.3407L77.9625 89.3406L77.9628 89.3405L77.9631 89.3404L77.9635 89.3403L77.9638 89.3402L77.9641 89.3401L77.9644 89.34L77.9648 89.3399L77.9651 89.3398L77.9654 89.3396L77.9657 89.3395L77.966 89.3394L77.9664 89.3393L77.9667 89.3392L77.967 89.3391L77.9673 89.339L77.9676 89.3389L77.968 89.3388L77.9683 89.3387L77.9686 89.3386L77.9689 89.3385L77.9692 89.3384L77.9696 89.3383L77.9699 89.3382L77.9702 89.3381L77.9705 89.338L77.9708 89.3379L77.9712 89.3378L77.9715 89.3377L77.9718 89.3376L77.9721 89.3375L77.9724 89.3374L77.9728 89.3373L77.9731 89.3372L77.9734 89.3371L77.9737 89.337L77.974 89.3369L77.9744 89.3368L77.9747 89.3367L77.975 89.3366L77.9753 89.3365L77.9756 89.3364L77.9759 89.3363L77.9763 89.3362L77.9766 89.336L77.9769 89.3359L77.9772 89.3358L77.9775 89.3357L77.9779 89.3356L77.9782 89.3355L77.9785 89.3354L77.9788 89.3353L77.9791 89.3352L77.9794 89.3351L77.9798 89.335L77.9801 89.3349L77.9804 89.3348L77.9807 89.3347L77.981 89.3346L77.9813 89.3345L77.9817 89.3344L77.982 89.3343L77.9823 89.3342L77.9826 89.3341L77.9829 89.334L77.9832 89.3339L77.9836 89.3338L77.9839 89.3337L77.9842 89.3336L77.9845 89.3335L77.9848 89.3334L77.9851 89.3333L77.9855 89.3332L77.9858 89.3331L77.9861 89.333L77.9864 89.3329L77.9867 89.3328L77.987 89.3327L77.9874 89.3326L77.9877 89.3325L77.988 89.3324L77.9883 89.3323L77.9886 89.3322L77.9889 89.3321L77.9892 89.332L77.9896 89.3319L77.9899 89.3318L77.9902 89.3317L77.9905 89.3316L77.9908 89.3315L77.9911 89.3314L77.9915 89.3313L77.9918 89.3312L77.9921 89.3311L77.9924 89.331L77.9927 89.3309L77.993 89.3308L77.9933 89.3307L77.9937 89.3306L77.994 89.3305L77.9943 89.3304L77.9946 89.3303L77.9949 89.3302L77.9952 89.3301L77.9955 89.33L77.9958 89.3299L77.9962 89.3298L77.9965 89.3297L77.9968 89.3295L77.9971 89.3294L77.9974 89.3293L77.9977 89.3292L77.998 89.3291L77.9984 89.329L77.9987 89.3289L77.999 89.3288L77.9993 89.3287L77.9996 89.3286L77.9999 89.3285L78.0002 89.3284L78.0005 89.3283L78.0009 89.3282L78.0012 89.3281L78.0015 89.328L78.0018 89.3279L78.0021 89.3278L78.0024 89.3277L78.0027 89.3276L78.003 89.3275L78.0033 89.3274L78.0037 89.3273L78.004 89.3272L78.0043 89.3271L78.0046 89.327L78.0049 89.3269L78.0052 89.3268L78.0055 89.3267L78.0058 89.3266L78.0061 89.3265L78.0065 89.3264L78.0068 89.3263L78.0071 89.3262L78.0074 89.3261L78.0077 89.326L78.008 89.3259L78.0083 89.3258L78.0086 89.3257L78.0089 89.3256L78.0092 89.3255L78.0096 89.3254L78.0099 89.3253L78.0102 89.3252L78.0105 89.3251L78.0108 89.325L78.0111 89.3249L78.0114 89.3248L78.0117 89.3247L78.012 89.3246L78.0123 89.3245L78.0127 89.3244L78.013 89.3243L78.0133 89.3242L78.0136 89.3241L78.0139 89.324L78.0142 89.3239L78.0145 89.3238L78.0148 89.3237L78.0151 89.3237L78.0154 89.3236L78.0157 89.3235L78.0161 89.3234L78.0164 89.3233L78.0167 89.3232L78.017 89.3231L78.0173 89.323L78.0176 89.3229L78.0179 89.3228L78.0182 89.3227L78.0185 89.3226L78.0188 89.3225L78.0191 89.3224L78.0194 89.3223L78.0197 89.3222L78.0201 89.3221L78.0204 89.322C78.444 89.1857 78.8677 89.1127 79.2894 89.1063L82.9866 91.256ZM82.9866 91.256L82.9807 91.2456M82.9866 91.256L82.9807 91.2456M82.9807 91.2456C82.965 91.2177 82.9473 91.1849 82.9277 91.1472L82.9228 91.1379M82.9807 91.2456L82.9228 91.1379M82.9228 91.1379L82.9176 91.1289M82.9228 91.1379L82.9176 91.1289M82.9176 91.1289C82.5278 90.4501 81.9542 89.9275 81.2175 89.5582M82.9176 91.1289L81.2175 89.5582M81.2175 89.5582C81.1373 89.5178 81.0547 89.4803 80.9702 89.445C80.4242 89.2128 79.8626 89.0975 79.2895 89.1063L81.2175 89.5582ZM83.5691 99.0742L83.2681 99.286L83.3808 99.6363L84.0853 101.826L80.3721 103.021L79.6711 100.842L79.5584 100.491L79.1904 100.495C78.2294 100.504 77.2796 100.31 76.3377 99.9074L76.0068 99.766L75.7676 100.035L74.2094 101.787L71.3096 99.2834L72.8679 97.5393L73.1131 97.2648L72.9238 96.9491C72.7937 96.7319 72.673 96.4991 72.5618 96.2499C72.4977 96.0973 72.4368 95.9442 72.3796 95.7907L72.3795 95.7902L72.3793 95.7897L72.3791 95.7891L72.3789 95.7885L72.3788 95.788L72.3786 95.7874L72.3784 95.7869L72.3782 95.7863L72.378 95.7857L72.3779 95.7852L72.3777 95.7846L72.3775 95.7841L72.3773 95.7835L72.3771 95.7829L72.377 95.7824L72.3768 95.7818L72.3766 95.7813L72.3764 95.7807L72.3762 95.7801L72.3761 95.7796L72.3759 95.779L72.3757 95.7784L72.3755 95.7779L72.3753 95.7773L72.3752 95.7768L72.375 95.7762L72.3748 95.7756L72.3746 95.7751L72.3744 95.7745L72.3742 95.774L72.3741 95.7734L72.3739 95.7728L72.3737 95.7723L72.3735 95.7717L72.3733 95.7711L72.3732 95.7706L72.373 95.77L72.3728 95.7695L72.3726 95.7689L72.3724 95.7683L72.3723 95.7678L72.3721 95.7672L72.3719 95.7666L72.3717 95.7661L72.3715 95.7655L72.3714 95.765L72.3712 95.7644L72.371 95.7638L72.3708 95.7633L72.3706 95.7627L72.3704 95.7621L72.3703 95.7616L72.3701 95.761L72.3699 95.7604L72.3697 95.7599L72.3695 95.7593L72.3694 95.7588L72.3692 95.7582L72.369 95.7576L72.3688 95.7571L72.3686 95.7565L72.3685 95.7559L72.3683 95.7554L72.3681 95.7548L72.3679 95.7542L72.3677 95.7537L72.3675 95.7531L72.3674 95.7526L72.3672 95.752L72.367 95.7514L72.3668 95.7509L72.3666 95.7503L72.3665 95.7497L72.3663 95.7492L72.3661 95.7486L72.3659 95.748L72.3657 95.7475L72.3655 95.7469L72.3654 95.7463L72.3652 95.7458L72.365 95.7452L72.3648 95.7446L72.3646 95.7441L72.3645 95.7435L72.3643 95.7429L72.3641 95.7424L72.3639 95.7418L72.3637 95.7412L72.3635 95.7407L72.3634 95.7401L72.3632 95.7395L72.363 95.739L72.3628 95.7384L72.3626 95.7378L72.3624 95.7373L72.3623 95.7367L72.3621 95.7361L72.3619 95.7356L72.3617 95.735L72.3615 95.7344L72.3614 95.7339L72.3612 95.7333L72.361 95.7327L72.3608 95.7322L72.3606 95.7316L72.3604 95.731L72.3603 95.7305L72.3601 95.7299L72.3599 95.7293L72.3597 95.7288L72.3595 95.7282L72.3593 95.7276L72.3592 95.7271L72.359 95.7265L72.3588 95.7259L72.3586 95.7254L72.3584 95.7248L72.3582 95.7242L72.3581 95.7236L72.3579 95.7231L72.3577 95.7225L72.3575 95.7219L72.3573 95.7214L72.3572 95.7208L72.357 95.7202L72.3568 95.7197L72.3566 95.7191L72.3564 95.7185L72.3562 95.718L72.3561 95.7174L72.3559 95.7168L72.3557 95.7162L72.3555 95.7157L72.3553 95.7151L72.3551 95.7145L72.355 95.714L72.3548 95.7134L72.3546 95.7128L72.3544 95.7123L72.3542 95.7117L72.354 95.7111L72.3539 95.7105L72.3537 95.71L72.3535 95.7094L72.3533 95.7088L72.3531 95.7083L72.3529 95.7077L72.3527 95.7071L72.3526 95.7066L72.3524 95.706L72.3522 95.7054L72.352 95.7048L72.3518 95.7043L72.3516 95.7037L72.3515 95.7031L72.3513 95.7026L72.3511 95.702L72.3509 95.7014L72.3507 95.7008L72.3505 95.7003L72.3504 95.6997L72.3502 95.6991L72.35 95.6986L72.3498 95.698L72.3496 95.6974L72.3494 95.6968L72.3493 95.6963L72.3491 95.6957L72.3489 95.6951L72.3487 95.6945L72.3485 95.694L72.3483 95.6934L72.3481 95.6928L72.348 95.6923L72.3478 95.6917L72.3476 95.6911L72.3474 95.6905L72.3472 95.69L72.347 95.6894L72.3469 95.6888L72.3467 95.6882L72.3465 95.6877L72.3463 95.6871L72.3461 95.6865L72.3459 95.6859L72.3458 95.6854L72.3456 95.6848L72.3454 95.6842L72.3452 95.6836L72.345 95.6831L72.3448 95.6825L72.3446 95.6819L72.3445 95.6813L72.3443 95.6808L72.3441 95.6802L72.3439 95.6796L72.3437 95.679L72.3435 95.6785L72.3433 95.6779L72.3432 95.6773L72.343 95.6767L72.3428 95.6762L72.3426 95.6756L72.3424 95.675L72.3422 95.6744L72.3421 95.6739L72.3419 95.6733L72.3417 95.6727L72.3415 95.6721L72.3413 95.6716L72.3411 95.671L72.3409 95.6704L72.3408 95.6698L72.3406 95.6693L72.3404 95.6687L72.3402 95.6681L72.34 95.6675L72.3398 95.667L72.3396 95.6664L72.3395 95.6658L72.3393 95.6652L72.3391 95.6646L72.3389 95.6641L72.3387 95.6635L72.3385 95.6629L72.3383 95.6623L72.3382 95.6618L72.338 95.6612L72.3378 95.6606L72.3376 95.66L72.3374 95.6594L72.3372 95.6589L72.337 95.6583L72.3369 95.6577L72.3367 95.6571L72.3365 95.6566L72.3363 95.656L72.3361 95.6554L72.3359 95.6548L72.3357 95.6542L72.3356 95.6537L72.3354 95.6531L72.3352 95.6525L72.335 95.6519L72.3348 95.6513L72.3346 95.6508L72.3344 95.6502L72.3342 95.6496L72.3341 95.649L72.3339 95.6485L72.3337 95.6479L72.3335 95.6473L72.3333 95.6467L72.3331 95.6461L72.3329 95.6456L72.3328 95.645L72.3326 95.6444L72.3324 95.6438L72.3322 95.6432L72.332 95.6427L72.3318 95.6421L72.3316 95.6415L72.3314 95.6409L72.3313 95.6403L72.3311 95.6397L72.3309 95.6392L72.3307 95.6386L72.3305 95.638L72.3303 95.6374L72.3301 95.6368L72.33 95.6363L72.3298 95.6357L72.3296 95.6351L72.3294 95.6345L72.3292 95.6339L72.329 95.6334L72.3288 95.6328L72.3286 95.6322L72.3285 95.6316L72.3283 95.631L72.3281 95.6304L72.3279 95.6299L72.3277 95.6293L72.3275 95.6287L72.3273 95.6281L72.3271 95.6275L72.327 95.6269L72.3268 95.6264L72.3266 95.6258L72.3264 95.6252L72.3262 95.6246L72.326 95.624L72.3258 95.6234L72.3256 95.6229L72.3255 95.6223L72.3253 95.6217L72.3251 95.6211L72.3249 95.6205L72.3247 95.6199L72.3245 95.6194L72.3243 95.6188L72.3241 95.6182L72.324 95.6176L72.3238 95.617L72.3236 95.6164L72.3234 95.6159L72.3232 95.6153L72.323 95.6147L72.3228 95.6141L72.3226 95.6135L72.3224 95.6129L72.3223 95.6123L72.3221 95.6118L72.3219 95.6112L72.3217 95.6106L72.3215 95.61L72.3213 95.6094L72.3211 95.6088L72.3209 95.6083L72.3208 95.6077L72.3206 95.6071L72.3204 95.6065L72.3202 95.6059L72.32 95.6053L72.3198 95.6047L72.3196 95.6041L72.3194 95.6036L72.3192 95.603L72.3191 95.6024L72.3189 95.6018L72.3187 95.6012L72.3185 95.6006L72.3183 95.6L72.3181 95.5995L72.3179 95.5989L72.3177 95.5983L72.3175 95.5977L72.3174 95.5971L72.3172 95.5965L72.317 95.5959L72.3168 95.5953L72.3166 95.5948L72.3164 95.5942L72.3162 95.5936L72.316 95.593L72.3158 95.5924L72.3157 95.5918L72.3155 95.5912L72.3153 95.5906L72.3151 95.59L72.3149 95.5895L72.3147 95.5889L72.3145 95.5883L72.3143 95.5877L72.3141 95.5871L72.314 95.5865L72.3138 95.5859L72.3136 95.5853L72.3134 95.5847L72.3132 95.5842L72.313 95.5836L72.3128 95.583L72.3126 95.5824L72.3124 95.5818L72.3122 95.5812L72.3121 95.5806L72.3119 95.58L72.3117 95.5794L72.3115 95.5788L72.3113 95.5783L72.3111 95.5777L72.3109 95.5771L72.3107 95.5765L72.3105 95.5759L72.3103 95.5753L72.3102 95.5747L72.31 95.5741L72.3098 95.5735L72.3096 95.5729L72.3094 95.5723L72.3092 95.5718L72.309 95.5712L72.3088 95.5706L72.3086 95.57L72.3084 95.5694L72.3083 95.5688L72.3081 95.5682L72.3079 95.5676L72.3077 95.567L72.3075 95.5664L72.3073 95.5658L72.3071 95.5652L72.3069 95.5647L72.3067 95.5641L72.3065 95.5635L72.3063 95.5629L72.3062 95.5623L72.306 95.5617L72.3058 95.5611L72.3056 95.5605L72.3054 95.5599L72.3052 95.5593L72.305 95.5587L72.3048 95.5581L72.3046 95.5575L72.3044 95.5569L72.3042 95.5563L72.3041 95.5558L72.3039 95.5552L72.3037 95.5546L72.3035 95.554L72.3033 95.5534L72.3031 95.5528L72.3029 95.5522L72.3027 95.5516L72.3025 95.551L72.3023 95.5504L72.3021 95.5498L72.302 95.5492L72.3018 95.5486L72.3016 95.548L72.3014 95.5474L72.3012 95.5468L72.301 95.5462L72.3008 95.5456L72.3006 95.545L72.3004 95.5444L72.3002 95.5439L72.3 95.5433L72.2998 95.5427L72.2997 95.5421L72.2995 95.5415L72.2993 95.5409L72.2991 95.5403L72.2989 95.5397L72.2987 95.5391L72.2985 95.5385L72.2983 95.5379L72.2981 95.5373L72.2979 95.5367L72.2977 95.5361L72.2975 95.5355L72.2973 95.5349L72.2972 95.5343L72.297 95.5337L72.2968 95.5331L72.2966 95.5325L72.2964 95.5319L72.2962 95.5313L72.296 95.5307L72.2958 95.5301L72.2956 95.5295L72.2954 95.5289L72.2952 95.5283L72.295 95.5277L72.2948 95.5271L72.2947 95.5265L72.2945 95.5259L72.2943 95.5253L72.2941 95.5247L72.2939 95.5241L72.2937 95.5235L72.2935 95.5229L72.2933 95.5223L72.2931 95.5217L72.2929 95.5211L72.2927 95.5205L72.2925 95.5199L72.2923 95.5193L72.2921 95.5187L72.292 95.5181L72.2918 95.5175L72.2916 95.5169L72.2914 95.5163L72.2912 95.5157L72.291 95.5151L72.2908 95.5145L72.2906 95.5139L72.2904 95.5133L72.2902 95.5127L72.29 95.5121L72.2898 95.5115L72.2896 95.5109L72.2894 95.5103L72.2892 95.5097L72.2891 95.5091L72.2889 95.5085L72.2887 95.5079L72.2885 95.5073L72.2883 95.5067L72.2881 95.5061L72.2879 95.5055L72.2877 95.5049C72.1169 94.9738 72.0063 94.4489 71.9548 93.9307L71.9189 93.5694L71.5642 93.4917L69.287 92.993L70.1835 89.268L72.495 89.7782L72.8427 89.8549L73.0289 89.5515C73.5573 88.6904 74.2109 87.9831 74.9904 87.4236L75.2864 87.2112L75.1748 86.8643L74.4738 84.6852L78.187 83.4907L78.888 85.6699L78.9995 86.0164L79.3636 86.0167C79.9002 86.0172 80.4341 86.0786 80.9656 86.201C81.1265 86.2411 81.2883 86.2842 81.4504 86.3309C81.7012 86.4106 81.9521 86.5014 82.2033 86.6039L82.5286 86.7365L82.7637 86.4755L84.3552 84.7083L87.2567 87.2132L85.6888 88.9613L85.4461 89.2319L85.6287 89.5463C85.8859 89.9889 86.1005 90.4753 86.2714 91.0066C86.44 91.5308 86.5481 92.0471 86.5974 92.5576L86.6323 92.9195L86.9874 92.9978L89.2801 93.5036L88.3834 97.2291L86.0719 96.7191L85.7223 96.6419L85.5367 96.948C85.0115 97.814 84.3559 98.5209 83.5691 99.0742Z" stroke="black"/>
</g>
<defs>
<filter id="filter0_d_798_19735" x="0" y="0" width="166" height="166" filterUnits="userSpaceOnUse" color-interpolation-filters="sRGB">
<feFlood flood-opacity="0" result="BackgroundImageFix"/>
<feColorMatrix in="SourceAlpha" type="matrix" values="0 0 0 0 0 0 0 0 0 0 0 0 0 0 0 0 0 0 127 0" result="hardAlpha"/>
<feOffset dy="4"/>
<feGaussianBlur stdDeviation="18"/>
<feColorMatrix type="matrix" values="0 0 0 0 0 0 0 0 0 0 0 0 0 0 0 0 0 0 0.08 0"/>
<feBlend mode="normal" in2="BackgroundImageFix" result="effect1_dropShadow_798_19735"/>
<feBlend mode="normal" in="SourceGraphic" in2="effect1_dropShadow_798_19735" result="shape"/>
</filter>
<linearGradient id="paint0_linear_798_19735" x1="110.118" y1="75.0633" x2="80.3339" y2="71.3028" gradientUnits="userSpaceOnUse">
<stop stop-color="#16FF00"/>
<stop offset="1" stop-color="#4DFFC9"/>
<stop offset="1" stop-color="#4DFFC9"/>
</linearGradient>
</defs>
</svg>
