<svg width="167" height="166" viewBox="0 0 167 166" fill="none" xmlns="http://www.w3.org/2000/svg">
<g filter="url(#filter0_d_798_19747)">
<rect x="36.6665" y="32" width="94" height="94" rx="47" fill="white"/>
<path d="M61.3032 71.4395L72.3773 77.5151L65.7494 89.6331L61.0555 87.0658" stroke="black" stroke-linecap="round"/>
<path d="M68.481 75.3838L61.853 87.5018" stroke="black"/>
<path d="M104.941 71.7L93.5586 78.627L100.739 90.4261L105.309 87.6447" stroke="black" stroke-linecap="round"/>
<path d="M104.534 88.1179L97.3532 76.3189" stroke="black"/>
<path d="M85.6811 89.8619L93.1553 96.321C93.9229 96.9844 95.083 96.8999 95.7464 96.1322V96.1322C96.3918 95.3854 96.3316 94.262 95.6101 93.5884L88.3328 86.7935L85.6899 83.7695" stroke="black" stroke-linecap="round" stroke-linejoin="round"/>
<path d="M82.1507 80.6939C79.859 79.8962 73.6562 80.1642 71.9557 78.6863" stroke="black" stroke-linecap="round" stroke-linejoin="round"/>
<path d="M85.6821 89.8618L92.5006 95.7543C93.2538 96.4052 93.3367 97.5434 92.6858 98.2965V98.2965C92.035 99.0497 90.8968 99.1326 90.1436 98.4817L84.007 93.1785" stroke="black" stroke-linecap="round"/>
<path d="M84.0063 93.1787L89.4612 97.8927C90.2143 98.5436 90.2972 99.6818 89.6464 100.435V100.435C88.9955 101.188 87.8573 101.271 87.1042 100.62L82.3312 96.4954" stroke="black" stroke-linecap="round"/>
<path d="M82.3325 96.4951L86.4124 100.021C87.1718 100.677 87.2554 101.825 86.5991 102.584V102.584C85.9505 103.335 84.8199 103.426 84.0588 102.79L82.1672 101.209" stroke="black" stroke-linecap="round"/>
<path d="M99.9353 89.506L95.7593 93.385" stroke="black"/>
<path d="M71.5118 91.3528L66.6842 88.3231" stroke="black"/>
<path d="M90.5592 81.2957L90.4703 81.7877L90.5592 81.2957ZM86.0681 83.9757C86.2006 83.7334 86.1116 83.4296 85.8694 83.297C85.6271 83.1645 85.3233 83.2535 85.1908 83.4958L86.0681 83.9757ZM93.9758 79.7896C93.6217 79.997 93.0142 80.3018 92.3662 80.5283C91.6987 80.7617 91.0746 80.8806 90.648 80.8036L90.4703 81.7877C91.1656 81.9132 91.9984 81.7162 92.6962 81.4723C93.4134 81.2215 94.0796 80.8877 94.4812 80.6525L93.9758 79.7896ZM90.648 80.8036C90.0101 80.6884 89.1247 80.3271 88.2072 79.9572C87.7621 79.7777 87.3145 79.5988 86.9131 79.4628C86.5227 79.3305 86.1263 79.2207 85.7964 79.2086L85.7595 80.2079C85.933 80.2143 86.2106 80.2806 86.5921 80.4098C86.9624 80.5354 87.3842 80.7036 87.8332 80.8846C88.7041 81.2358 89.7058 81.6496 90.4703 81.7877L90.648 80.8036ZM85.7964 79.2086C85.2154 79.1871 84.4458 79.3283 83.7356 79.5363C83.0253 79.7444 82.3012 80.0406 81.8236 80.372L82.3937 81.1936C82.7439 80.9506 83.3509 80.691 84.0167 80.496C84.6824 80.3011 85.3336 80.1922 85.7595 80.2079L85.7964 79.2086ZM81.8236 80.372C81.429 80.6459 80.8812 80.9671 80.3085 81.3026C79.7477 81.6311 79.1619 81.9738 78.7287 82.2744L79.2988 83.096C79.6934 82.8222 80.2412 82.5009 80.8139 82.1655C81.3747 81.8369 81.9605 81.4942 82.3937 81.1936L81.8236 80.372ZM78.7287 82.2744C78.4849 82.4436 78.2438 82.6643 78.0639 82.9176C77.8885 83.1645 77.736 83.4938 77.7682 83.8608C77.803 84.2573 78.0411 84.5781 78.4083 84.8012C78.7601 85.0149 79.2515 85.1559 79.8865 85.2325L80.0062 84.2397C79.4367 84.171 79.1058 84.0548 78.9275 83.9465C78.7647 83.8476 78.7651 83.7815 78.7643 83.7734C78.7611 83.7359 78.7754 83.6428 78.8791 83.4967C78.9784 83.3569 79.1288 83.214 79.2988 83.096L78.7287 82.2744ZM79.8865 85.2325C81.1655 85.3867 82.5918 85.2256 83.7162 84.9817C84.2808 84.8592 84.7835 84.7128 85.1669 84.5669C85.3574 84.4944 85.5294 84.4179 85.6684 84.3392C85.7378 84.2998 85.8079 84.255 85.8709 84.204C85.9284 84.1575 86.0097 84.0825 86.0681 83.9757L85.1908 83.4958C85.2222 83.4384 85.2543 83.4166 85.242 83.4266C85.2353 83.432 85.2151 83.4466 85.1755 83.4691C85.0965 83.5138 84.9754 83.5699 84.8112 83.6324C84.4851 83.7565 84.0322 83.8899 83.5043 84.0044C82.4434 84.2345 81.1363 84.3759 80.0062 84.2397L79.8865 85.2325Z" fill="black"/>
<circle cx="83.6665" cy="64" r="11" fill="url(#paint0_linear_798_19747)"/>
<path d="M82.1484 68.0559C82.1484 68.3287 82.3695 68.5498 82.6423 68.5498C82.9151 68.5498 83.1363 68.3287 83.1363 68.0558V66.8645H85.5383C85.8485 66.8645 86.1 66.613 86.1 66.3028C86.1 65.9925 85.8485 65.741 85.5383 65.741H83.1363V64.6175H85.3591C86.7209 64.6175 87.8289 63.3575 87.8289 61.8088C87.8289 60.26 86.7209 59 85.3591 59H82.6423C82.5113 59 82.3857 59.0592 82.293 59.1645C82.2004 59.2699 82.1484 59.4128 82.1484 59.5618V63.494H81.2283C80.918 63.494 80.6665 63.7455 80.6665 64.0558C80.6665 64.366 80.918 64.6175 81.2283 64.6175H82.1484V65.741H81.2283C80.918 65.741 80.6665 65.9925 80.6665 66.3028C80.6665 66.613 80.918 66.8645 81.2283 66.8645H82.1484V68.0559ZM83.1363 60.1235H85.3591C86.1761 60.1235 86.8409 60.8796 86.8409 61.8088C86.8409 62.7379 86.1761 63.494 85.3591 63.494H83.1363V60.1235Z" fill="black"/>
<path fill-rule="evenodd" clip-rule="evenodd" d="M72.6044 94.1602L74.8973 91.9988C75.2505 91.5199 75.2221 90.8425 74.7994 90.3942C74.324 89.8898 73.5297 89.8664 73.0254 90.3418L71.0607 92.1938C70.5563 92.6692 70.5329 93.4635 71.0083 93.9679C71.4309 94.4162 72.1055 94.4845 72.6044 94.1602ZM71.6433 95.3449C71.1404 95.2826 70.6554 95.0514 70.2806 94.6538C69.4264 93.7475 69.4685 92.3204 70.3747 91.4661L72.3395 89.6141C73.2457 88.7599 74.6729 88.802 75.5271 89.7082C75.8825 90.0853 76.0828 90.5525 76.1302 91.0311C76.9729 90.6759 77.9833 90.8582 78.6475 91.5627C79.1337 92.0786 79.3295 92.7632 79.2409 93.4148C79.8969 93.3645 80.5692 93.6004 81.0557 94.1164C81.8221 94.9296 81.867 96.162 81.2135 97.0238C81.6988 97.0947 82.1646 97.3236 82.5271 97.7082C83.3814 98.6145 83.3392 100.042 82.433 100.896L80.4683 102.748C79.562 103.602 78.1349 103.56 77.2806 102.654C76.8291 102.175 76.628 101.55 76.6726 100.942C75.9112 101.126 75.0751 100.907 74.4994 100.297C74.0131 99.7808 73.8173 99.0962 73.906 98.4445C73.2499 98.4949 72.5776 98.259 72.0912 97.7429C71.4659 97.0797 71.3209 96.1374 71.6433 95.3449ZM73.2338 94.9412L72.8712 95.283C72.3669 95.7584 72.3434 96.5527 72.8188 97.057C73.2943 97.5614 74.0885 97.5848 74.5929 97.1094L77.8674 94.0227C78.3718 93.5473 78.3952 92.753 77.9198 92.2487C77.4444 91.7443 76.6501 91.7208 76.1457 92.1963L75.6397 92.6732C75.5767 92.751 75.5078 92.8254 75.433 92.8959L73.4683 94.7479C73.3935 94.8184 73.3151 94.8828 73.2338 94.9412ZM79.7823 102.02L81.7471 100.168C82.2514 99.6928 82.2749 98.8985 81.7994 98.3942C81.324 97.8898 80.5297 97.8664 80.0254 98.3418L78.0607 100.194C77.5563 100.669 77.5329 101.463 78.0083 101.968C78.4837 102.472 79.278 102.496 79.7823 102.02ZM80.2756 96.5764L77.0011 99.6631C76.4967 100.139 75.7025 100.115 75.227 99.6107C74.7516 99.1064 74.7751 98.3121 75.2794 97.8367L78.5539 94.75C79.0583 94.2746 79.8526 94.298 80.328 94.8024C80.8034 95.3067 80.78 96.101 80.2756 96.5764Z" fill="black"/>
</g>
<defs>
<filter id="filter0_d_798_19747" x="0.666504" y="0" width="166" height="166" filterUnits="userSpaceOnUse" color-interpolation-filters="sRGB">
<feFlood flood-opacity="0" result="BackgroundImageFix"/>
<feColorMatrix in="SourceAlpha" type="matrix" values="0 0 0 0 0 0 0 0 0 0 0 0 0 0 0 0 0 0 127 0" result="hardAlpha"/>
<feOffset dy="4"/>
<feGaussianBlur stdDeviation="18"/>
<feColorMatrix type="matrix" values="0 0 0 0 0 0 0 0 0 0 0 0 0 0 0 0 0 0 0.08 0"/>
<feBlend mode="normal" in2="BackgroundImageFix" result="effect1_dropShadow_798_19747"/>
<feBlend mode="normal" in="SourceGraphic" in2="effect1_dropShadow_798_19747" result="shape"/>
</filter>
<linearGradient id="paint0_linear_798_19747" x1="72.6665" y1="64" x2="94.6461" y2="64" gradientUnits="userSpaceOnUse">
<stop stop-color="#16FF00"/>
<stop offset="1" stop-color="#4DFFC9"/>
<stop offset="1" stop-color="#4DFFC9"/>
</linearGradient>
</defs>
</svg>
