<svg width="70" height="70" viewBox="0 0 70 70" fill="none" xmlns="http://www.w3.org/2000/svg">
<path d="M46.0725 62.7094H6.68239C4.64828 62.7094 2.99931 61.0605 2.99931 59.0264V57.7205C2.99931 55.6864 4.64828 54.0375 6.6824 54.0375H10.4406C11.2394 54.0375 12.0164 53.7778 12.6547 53.2977L18.121 49.1857C18.7592 48.7055 19.5363 48.4459 20.335 48.4459H36.014C37.6223 48.4459 38.9261 49.7497 38.9261 51.358C38.9261 52.8725 37.7651 54.1342 36.2558 54.26L24.0598 55.2763H43.5947C44.5716 55.2763 45.5084 54.8883 46.1991 54.1976L56.27 44.1266C57.6384 42.7582 59.857 42.7582 61.2254 44.1266C62.5938 45.495 62.5938 47.7136 61.2254 49.082L48.6768 61.6307C47.9861 62.3214 47.0493 62.7094 46.0725 62.7094Z" stroke="black"/>
<circle cx="38.8428" cy="24.8115" r="13.8115" fill="url(#paint0_linear_798_19973)"/>
<path d="M36.1433 30.3148C36.1433 30.6655 36.4276 30.9498 36.7783 30.9498C37.129 30.9498 37.4133 30.6655 37.4133 30.3148V28.7833H40.5013C40.9001 28.7833 41.2234 28.4599 41.2234 28.0611C41.2234 27.6622 40.9001 27.3389 40.5013 27.3389H37.4133V25.8946H40.2709C42.0216 25.8946 43.446 24.2747 43.446 22.2837C43.446 20.2927 42.0216 18.6729 40.2709 18.6729H36.7783C36.6099 18.6729 36.4484 18.7489 36.3293 18.8844C36.2102 19.0198 36.1433 19.2035 36.1433 19.395V24.4502H34.9605C34.5616 24.4502 34.2383 24.7736 34.2383 25.1724C34.2383 25.5712 34.5616 25.8946 34.9605 25.8946H36.1433V27.3389H34.9605C34.5616 27.3389 34.2383 27.6622 34.2383 28.0611C34.2383 28.4599 34.5616 28.7833 34.9605 28.7833H36.1433V30.3148ZM37.4133 20.1172H40.2709C41.3212 20.1172 42.1759 21.0892 42.1759 22.2837C42.1759 23.4782 41.3212 24.4502 40.2709 24.4502H37.4133V20.1172Z" fill="black"/>
<defs>
<linearGradient id="paint0_linear_798_19973" x1="25.0313" y1="24.8115" x2="52.6287" y2="24.8115" gradientUnits="userSpaceOnUse">
<stop stop-color="#16FF00"/>
<stop offset="1" stop-color="#4DFFC9"/>
<stop offset="1" stop-color="#4DFFC9"/>
</linearGradient>
</defs>
</svg>
