<svg width="152" height="152" viewBox="0 0 152 152" fill="none" xmlns="http://www.w3.org/2000/svg">
<g filter="url(#filter0_d_798_19803)">
<rect x="36" y="32" width="80" height="80" rx="40" fill="white"/>
<path d="M81.7759 66C81.7759 67.5403 81.1444 69.4436 80.106 70.9602C79.0593 72.4888 77.6908 73.5 76.2759 73.5C74.8609 73.5 73.4925 72.4888 72.4458 70.9602C71.4074 69.4436 70.7759 67.5403 70.7759 66C70.7759 62.9624 73.2383 60.5 76.2759 60.5C79.3134 60.5 81.7759 62.9624 81.7759 66Z" stroke="black"/>
<path d="M75.8942 80.323L76.2759 80.7741L76.6576 80.323L80.439 75.8541C80.629 75.6295 80.9082 75.5 81.2023 75.5H81.2759C84.3134 75.5 86.7759 77.9624 86.7759 81V87C86.7759 87.2761 86.552 87.5 86.2759 87.5H66.2759C65.9997 87.5 65.7759 87.2761 65.7759 87V81C65.7759 77.9624 68.2383 75.5 71.2759 75.5H71.3494C71.6436 75.5 71.9228 75.6295 72.1128 75.8541L75.8942 80.323Z" stroke="black"/>
<path d="M95.2931 67.7586C95.2931 68.9562 94.8005 70.4456 93.9868 71.6341C93.1648 72.8347 92.1066 73.6034 91.0345 73.6034C89.9624 73.6034 88.9042 72.8347 88.0822 71.6341C87.2685 70.4456 86.7759 68.9562 86.7759 67.7586C86.7759 65.4066 88.6825 63.5 91.0345 63.5C93.3865 63.5 95.2931 65.4066 95.2931 67.7586Z" stroke="black"/>
<path d="M90.0342 78.862L93.3027 75.3211C93.5526 75.0504 93.9041 74.8965 94.2725 74.8965V74.8965C97.188 74.8965 99.5514 77.2599 99.5514 80.1754V83.9999C99.5514 84.5522 99.1037 84.9999 98.5514 84.9999H90.0342" stroke="black"/>
<path d="M57.2586 67.7586C57.2586 68.9562 57.7512 70.4456 58.565 71.6341C59.387 72.8347 60.4451 73.6034 61.5173 73.6034C62.5894 73.6034 63.6475 72.8347 64.4696 71.6341C65.2833 70.4456 65.7759 68.9562 65.7759 67.7586C65.7759 65.4066 63.8692 63.5 61.5173 63.5C59.1653 63.5 57.2586 65.4066 57.2586 67.7586Z" stroke="black"/>
<path d="M62.5176 78.862L59.249 75.3211C58.9992 75.0504 58.6476 74.8965 58.2793 74.8965V74.8965C55.3638 74.8965 53.0003 77.2599 53.0003 80.1754V83.9999C53.0003 84.5522 53.4481 84.9999 54.0003 84.9999H62.5176" stroke="black"/>
<circle cx="84.5" cy="58.5" r="7.5" fill="url(#paint0_linear_798_19803)"/>
<path d="M81 57.7978L83.8765 60.6742L88.5507 56" stroke="black" stroke-width="2"/>
</g>
<defs>
<filter id="filter0_d_798_19803" x="0" y="0" width="152" height="152" filterUnits="userSpaceOnUse" color-interpolation-filters="sRGB">
<feFlood flood-opacity="0" result="BackgroundImageFix"/>
<feColorMatrix in="SourceAlpha" type="matrix" values="0 0 0 0 0 0 0 0 0 0 0 0 0 0 0 0 0 0 127 0" result="hardAlpha"/>
<feOffset dy="4"/>
<feGaussianBlur stdDeviation="18"/>
<feColorMatrix type="matrix" values="0 0 0 0 0 0 0 0 0 0 0 0 0 0 0 0 0 0 0.08 0"/>
<feBlend mode="normal" in2="BackgroundImageFix" result="effect1_dropShadow_798_19803"/>
<feBlend mode="normal" in="SourceGraphic" in2="effect1_dropShadow_798_19803" result="shape"/>
</filter>
<linearGradient id="paint0_linear_798_19803" x1="77" y1="58.5" x2="91.9861" y2="58.5" gradientUnits="userSpaceOnUse">
<stop stop-color="#16FF00"/>
<stop offset="1" stop-color="#4DFFC9"/>
</linearGradient>
</defs>
</svg>
